<svg xmlns="http://www.w3.org/2000/svg" xmlns:xlink="http://www.w3.org/1999/xlink" width="1000" zoomAndPan="magnify" viewBox="0 0 750 749.999995" height="1000" preserveAspectRatio="xMidYMid meet" version="1.0"><defs><clipPath id="2d057d9cc7"><path d="M 553 635 L 632 635 L 632 705 L 553 705 Z M 553 635 " clip-rule="nonzero"/></clipPath><clipPath id="d6e4663636"><path d="M 82.53125 40.074219 L 675.042969 82.074219 L 630.554688 709.746094 L 38.039062 667.75 Z M 82.53125 40.074219 " clip-rule="nonzero"/></clipPath><clipPath id="0759aa8923"><path d="M 82.53125 40.074219 L 675.042969 82.074219 L 630.554688 709.746094 L 38.039062 667.75 Z M 82.53125 40.074219 " clip-rule="nonzero"/></clipPath><clipPath id="cd5e89dbc2"><path d="M 74 48 L 564 48 L 564 672 L 74 672 Z M 74 48 " clip-rule="nonzero"/></clipPath><clipPath id="75b47eab68"><path d="M 82.53125 40.074219 L 675.042969 82.074219 L 630.554688 709.746094 L 38.039062 667.75 Z M 82.53125 40.074219 " clip-rule="nonzero"/></clipPath><clipPath id="a1b3166828"><path d="M 82.53125 40.074219 L 675.042969 82.074219 L 630.554688 709.746094 L 38.039062 667.75 Z M 82.53125 40.074219 " clip-rule="nonzero"/></clipPath></defs><g clip-path="url(#2d057d9cc7)"><g clip-path="url(#d6e4663636)"><g clip-path="url(#0759aa8923)"><path fill="#e5ffff" d="M 553.054688 703.796875 L 573.230469 669.71875 L 593.414062 635.554688 L 612.292969 670.136719 L 631.171875 704.722656 L 592.117188 704.214844 Z M 553.054688 703.796875 " fill-opacity="1" fill-rule="nonzero"/></g></g></g><g clip-path="url(#cd5e89dbc2)"><g clip-path="url(#75b47eab68)"><g clip-path="url(#a1b3166828)"><path fill="#e5ffff" d="M 559.441406 671.441406 C 559.007812 671.410156 558.582031 671.292969 558.15625 671.175781 C 549.761719 667.96875 541.816406 663.402344 534.476562 657.660156 C 532.574219 656.21875 532.246094 653.5 533.683594 651.597656 C 535.125 649.699219 537.847656 649.371094 539.75 650.8125 C 546.433594 655.984375 553.632812 660.0625 561.167969 663.035156 C 563.371094 663.886719 564.5 666.402344 563.640625 668.691406 C 563.078125 670.480469 561.261719 671.570312 559.441406 671.441406 Z M 518.664062 640.003906 C 517.449219 639.917969 516.273438 639.3125 515.476562 638.296875 C 509.984375 631.035156 505.5 623.058594 502.085938 614.722656 C 501.199219 612.484375 502.25 609.945312 504.488281 609.0625 C 506.726562 608.175781 509.265625 609.226562 510.152344 611.464844 C 513.269531 619.082031 517.449219 626.429688 522.457031 633.136719 C 523.886719 635.066406 523.523438 637.738281 521.589844 639.253906 C 520.679688 639.800781 519.703125 640.078125 518.664062 640.003906 Z M 499.410156 592.253906 C 497.332031 592.105469 495.617188 590.503906 495.417969 588.402344 C 494.765625 582.871094 494.644531 577.207031 495.03125 571.753906 C 495.160156 569.933594 495.382812 568.035156 495.597656 566.222656 C 495.808594 564.496094 496.097656 562.863281 496.386719 561.230469 C 496.820312 558.824219 499.101562 557.332031 501.421875 557.757812 C 503.742188 558.183594 505.320312 560.472656 504.894531 562.789062 C 504.613281 564.335938 504.328125 565.882812 504.128906 567.4375 C 503.925781 569.074219 503.722656 570.714844 503.609375 572.359375 C 503.257812 577.296875 503.328125 582.433594 503.933594 587.4375 C 504.199219 589.808594 502.480469 591.949219 500.109375 592.214844 C 499.929688 592.289062 499.671875 592.273438 499.410156 592.253906 Z M 507.464844 541.304688 C 507.117188 541.277344 506.691406 541.160156 506.347656 541.050781 C 504.054688 540.277344 502.925781 537.761719 503.699219 535.464844 C 504.785156 532.410156 505.964844 529.273438 507.050781 526.21875 C 508.875 521.386719 510.617188 516.460938 512.273438 511.53125 L 516.566406 512.359375 L 520.535156 514.117188 C 518.867188 519.222656 517.03125 524.226562 515.203125 529.144531 C 514.117188 532.203125 512.941406 535.25 511.855469 538.308594 C 511.1875 540.347656 509.367188 541.4375 507.464844 541.304688 Z M 522.996094 491.667969 C 522.824219 491.652344 522.5625 491.636719 522.390625 491.625 C 520.074219 491.109375 518.582031 488.828125 519.101562 486.429688 C 520.902344 478.203125 522.203125 469.679688 523.152344 461.21875 C 523.410156 458.796875 525.253906 457.363281 527.949219 457.378906 C 530.371094 457.636719 532.046875 459.757812 531.789062 462.175781 C 530.816406 470.984375 529.410156 479.761719 527.585938 488.335938 C 527.089844 490.390625 525.160156 491.820312 522.996094 491.667969 Z M 204.59375 448.992188 C 202.601562 448.851562 200.882812 447.335938 200.597656 445.230469 C 200.242188 442.855469 201.96875 440.625 204.25 440.351562 C 211.808594 439.324219 219.574219 436.652344 227.433594 432.597656 C 229.601562 431.53125 232.15625 432.324219 233.308594 434.492188 C 234.375 436.65625 233.582031 439.210938 231.410156 440.363281 C 222.648438 444.878906 213.90625 447.824219 205.378906 448.960938 C 205.203125 449.035156 204.941406 449.019531 204.59375 448.992188 Z M 179.007812 446.398438 C 178.578125 446.367188 178.148438 446.25 177.722656 446.132812 C 176.113281 445.496094 174.511719 444.773438 172.828125 443.957031 C 165.9375 440.421875 160.019531 435.476562 155.242188 429.222656 C 153.808594 427.292969 154.171875 424.621094 156.015625 423.183594 C 157.859375 421.746094 160.625 422.03125 162.140625 423.964844 C 166.128906 429.121094 171.058594 433.300781 176.769531 436.230469 C 178.113281 436.933594 179.460938 437.550781 180.824219 437.996094 C 183.027344 438.847656 184.152344 441.367188 183.296875 443.65625 C 182.648438 445.4375 180.828125 446.527344 179.007812 446.398438 Z M 250.621094 426.058594 C 249.496094 425.980469 248.484375 425.472656 247.675781 424.632812 C 246.058594 422.863281 246.253906 420.09375 248.023438 418.480469 C 249.507812 417.191406 250.820312 415.890625 252.21875 414.597656 C 256.335938 410.539062 260.582031 405.878906 265.4375 400.042969 C 266.957031 398.238281 269.761719 398 271.570312 399.523438 C 273.375 401.042969 273.613281 403.84375 272.089844 405.652344 C 266.960938 411.726562 262.617188 416.46875 258.308594 420.773438 C 256.8125 422.234375 255.320312 423.609375 253.738281 425.0625 C 252.902344 425.785156 251.746094 426.140625 250.621094 426.058594 Z M 528.570312 440.019531 C 526.320312 439.859375 524.535156 437.992188 524.527344 435.640625 C 524.523438 427.113281 524.09375 418.464844 523.203125 410.136719 C 522.9375 407.765625 524.65625 405.625 527.109375 405.363281 C 529.394531 405.089844 531.621094 406.816406 531.882812 409.269531 C 532.835938 417.953125 533.25 426.859375 533.230469 435.734375 C 533.230469 438.171875 531.269531 440.035156 528.917969 440.042969 C 528.746094 440.03125 528.660156 440.023438 528.570312 440.019531 Z M 147.636719 407.535156 C 145.816406 407.40625 144.164062 406.15625 143.6875 404.292969 C 141.652344 396.144531 140.644531 387.023438 140.632812 377.359375 C 140.632812 374.921875 142.59375 373.0625 145.03125 373.058594 C 147.296875 373.046875 149.332031 375.019531 149.332031 377.453125 C 149.308594 386.417969 150.203125 394.660156 152.105469 402.195312 C 152.726562 404.5 151.253906 406.832031 148.949219 407.453125 C 148.507812 407.507812 148.070312 407.5625 147.636719 407.535156 Z M 284.992188 386.984375 C 284.128906 386.921875 283.28125 386.601562 282.535156 386.027344 C 280.730469 384.507812 280.398438 381.785156 281.925781 379.890625 C 286.59375 374.21875 292.773438 366.910156 299.605469 360.171875 C 301.292969 358.460938 304.078125 358.484375 305.78125 360.261719 C 307.488281 361.949219 307.464844 364.730469 305.691406 366.433594 C 299.230469 372.851562 293.433594 379.664062 288.582031 385.496094 C 287.722656 386.566406 286.378906 387.082031 284.992188 386.984375 Z M 522.917969 388.359375 C 521.097656 388.226562 519.445312 386.980469 518.96875 385.117188 C 516.804688 376.347656 513.878906 368.484375 510.355469 361.707031 C 509.199219 359.621094 510.082031 356.988281 512.164062 355.828125 C 514.242188 354.757812 516.886719 355.554688 518.042969 357.640625 C 521.878906 364.960938 525.101562 373.542969 527.394531 382.929688 C 527.929688 385.230469 526.542969 387.570312 524.234375 388.191406 C 523.789062 388.332031 523.351562 388.386719 522.917969 388.359375 Z M 147.296875 355.816406 C 147.125 355.800781 146.953125 355.789062 146.777344 355.777344 C 144.457031 355.351562 142.878906 353.066406 143.304688 350.746094 L 143.859375 347.824219 C 145.6875 339.25 147.777344 331.828125 150.183594 324.949219 C 150.953125 322.65625 153.386719 321.523438 155.679688 322.292969 C 157.976562 323.066406 159.105469 325.582031 158.339844 327.789062 C 156.054688 334.242188 154.152344 341.417969 152.347656 349.644531 L 151.8125 352.304688 C 151.484375 354.457031 149.464844 355.96875 147.296875 355.816406 Z M 322.691406 351.363281 C 321.390625 351.269531 320.136719 350.574219 319.347656 349.386719 C 318.097656 347.382812 318.640625 344.636719 320.730469 343.390625 C 328.109375 338.78125 336.226562 334.828125 344.898438 331.617188 C 347.136719 330.730469 349.664062 331.953125 350.460938 334.183594 C 351.261719 336.417969 350.125 338.949219 347.890625 339.746094 C 339.757812 342.738281 332.179688 346.464844 325.34375 350.769531 C 324.441406 351.226562 323.558594 351.425781 322.691406 351.363281 Z M 497.972656 343.597656 C 497.105469 343.535156 496.257812 343.214844 495.519531 342.554688 C 493.222656 340.5625 490.648438 338.8125 488.054688 337.324219 C 483.953125 335.03125 479.378906 333.226562 474.160156 331.902344 C 471.855469 331.300781 470.453125 328.941406 471.054688 326.632812 C 471.652344 324.324219 473.929688 322.921875 476.324219 323.523438 C 482.304688 325.082031 487.472656 327.101562 492.332031 329.792969 C 495.425781 331.582031 498.417969 333.621094 501.128906 335.902344 C 502.9375 337.421875 503.171875 340.222656 501.652344 342.03125 C 500.613281 343.175781 499.269531 343.6875 497.972656 343.597656 Z M 371.082031 333.125 C 369.175781 332.988281 367.535156 331.566406 367.152344 329.625 C 366.710938 327.242188 368.261719 325.003906 370.558594 324.558594 C 378.679688 322.957031 387.292969 321.828125 396.839844 321.023438 C 399.203125 320.84375 401.339844 322.648438 401.519531 325.011719 C 401.699219 327.375 399.894531 329.507812 397.53125 329.6875 C 388.339844 330.429688 379.984375 331.578125 372.222656 333.03125 C 371.867188 333.09375 371.515625 333.152344 371.082031 333.125 Z M 422.941406 328.617188 C 420.691406 328.457031 418.90625 326.59375 418.894531 324.328125 C 418.890625 321.890625 420.773438 319.9375 423.210938 319.933594 C 429.65625 319.871094 436.003906 319.972656 442.351562 320.074219 C 444.699219 320.152344 447.136719 320.152344 449.480469 320.230469 C 451.734375 320.390625 453.777344 322.273438 453.691406 324.707031 C 453.605469 327.136719 451.558594 328.992188 449.214844 328.914062 C 446.867188 328.835938 444.523438 328.753906 442.171875 328.761719 C 435.910156 328.667969 429.648438 328.570312 423.289062 328.644531 C 423.203125 328.636719 423.027344 328.625 422.941406 328.617188 Z M 165.113281 307.121094 C 164.421875 307.074219 163.742188 306.851562 163.070312 306.457031 C 161.074219 305.183594 160.476562 302.53125 161.757812 300.445312 C 162.535156 299.28125 163.226562 298.113281 164 297.035156 C 167.976562 291.3125 172.816406 285.652344 178.816406 279.636719 C 180.503906 277.925781 183.289062 277.949219 184.996094 279.636719 C 186.707031 281.328125 186.683594 284.109375 184.992188 285.816406 C 179.285156 291.417969 174.816406 296.757812 171.136719 301.980469 C 170.453125 303.0625 169.683594 304.054688 169.085938 305.140625 C 168.199219 306.558594 166.671875 307.234375 165.113281 307.121094 Z M 200.941406 269.628906 C 199.816406 269.550781 198.804688 269.042969 197.996094 268.203125 C 196.378906 266.433594 196.574219 263.664062 198.429688 262.054688 C 203.445312 257.621094 209.203125 252.546875 214.464844 247.089844 C 215.3125 246.191406 216.160156 245.296875 217.007812 244.398438 C 218.617188 242.597656 221.40625 242.535156 223.121094 244.136719 C 224.921875 245.742188 224.984375 248.53125 223.382812 250.246094 C 222.53125 251.230469 221.597656 252.121094 220.65625 253.097656 C 215.210938 258.71875 209.265625 263.953125 204.070312 268.457031 C 203.222656 269.355469 202.066406 269.710938 200.941406 269.628906 Z M 235.789062 231.195312 C 235.097656 231.148438 234.332031 230.917969 233.75 230.527344 C 231.75 229.253906 231.160156 226.515625 232.433594 224.519531 C 237.027344 217.445312 241.039062 209.984375 244.460938 202.21875 C 245.402344 200.023438 247.992188 199.078125 250.1875 200.015625 C 252.386719 200.953125 253.335938 203.546875 252.394531 205.742188 C 248.769531 213.925781 244.554688 221.808594 239.675781 229.207031 C 238.878906 230.632812 237.351562 231.304688 235.789062 231.195312 Z M 256.824219 183.777344 C 256.566406 183.757812 256.304688 183.738281 256.050781 183.636719 C 253.742188 183.035156 252.34375 180.675781 252.949219 178.28125 C 255.089844 170.164062 256.644531 161.746094 257.5 153.363281 C 257.757812 150.945312 259.695312 149.429688 262.300781 149.527344 C 264.71875 149.785156 266.398438 151.90625 266.140625 154.324219 C 265.253906 163.140625 263.582031 171.984375 261.316406 180.613281 C 260.742188 182.574219 258.816406 183.917969 256.824219 183.777344 Z M 78.894531 156.457031 C 78.722656 156.445312 78.636719 156.4375 78.460938 156.425781 C 76.140625 156 74.46875 153.792969 74.894531 151.472656 C 75.957031 145.109375 76.449219 140.617188 76.8125 136.726562 C 77.253906 132.929688 77.574219 129.644531 78.289062 125.691406 C 78.714844 123.371094 81.003906 121.792969 83.324219 122.21875 C 85.644531 122.644531 87.222656 124.933594 86.800781 127.253906 C 86.101562 130.945312 85.789062 134.144531 85.449219 137.6875 C 84.988281 141.746094 84.484375 146.410156 83.410156 152.949219 C 83.175781 155.019531 81.148438 156.617188 78.894531 156.457031 Z M 262.054688 132.105469 C 259.890625 131.949219 258.179688 130.261719 257.992188 127.988281 C 257.464844 119.507812 256.320312 111.070312 254.460938 102.933594 C 253.925781 100.632812 255.398438 98.300781 257.699219 97.765625 C 260.003906 97.148438 262.332031 98.703125 262.867188 101.003906 C 264.871094 109.589844 266.15625 118.46875 266.648438 127.46875 C 266.832031 129.832031 264.945312 131.875 262.582031 132.054688 C 262.488281 132.136719 262.226562 132.117188 262.054688 132.105469 Z M 89.199219 105.667969 C 88.765625 105.636719 88.253906 105.511719 87.832031 105.308594 C 85.636719 104.367188 84.59375 101.859375 85.445312 99.65625 C 88.808594 91.539062 94.21875 84.003906 101.664062 77.222656 C 103.433594 75.605469 106.210938 75.714844 107.824219 77.484375 C 109.441406 79.25 109.332031 82.027344 107.5625 83.644531 C 101.046875 89.621094 96.320312 96.074219 93.480469 103.011719 C 92.832031 104.792969 91.019531 105.796875 89.199219 105.667969 Z M 246.664062 83.929688 C 245.710938 83.863281 244.785156 83.449219 244.046875 82.789062 C 242.902344 81.75 241.515625 80.433594 240.046875 79.023438 C 236.296875 75.449219 228.546875 68.113281 226.34375 67.261719 C 224.140625 66.40625 222.578125 63.859375 223.351562 61.566406 C 224.117188 59.355469 226.300781 58.03125 228.507812 58.796875 L 227.089844 62.875 L 229.183594 59.105469 C 232.835938 60.410156 238.476562 65.597656 245.976562 72.742188 C 247.449219 74.066406 248.75 75.375 249.894531 76.414062 C 251.699219 78.019531 251.761719 80.8125 250.160156 82.523438 C 249.21875 83.503906 247.964844 84.023438 246.664062 83.929688 Z M 126.082031 70.507812 C 124.519531 70.398438 123.105469 69.515625 122.429688 67.988281 C 121.449219 65.828125 122.417969 63.199219 124.578125 62.222656 C 133.125 58.304688 142.191406 55.726562 150.875 54.773438 C 153.246094 54.507812 155.386719 56.226562 155.65625 58.59375 C 155.921875 60.964844 154.203125 63.105469 151.832031 63.371094 C 144.027344 64.210938 135.847656 66.589844 128.195312 70.136719 C 127.566406 70.441406 126.773438 70.558594 126.082031 70.507812 Z M 176.457031 59.894531 C 174.984375 59.789062 173.652344 58.914062 172.878906 57.550781 C 171.8125 55.386719 172.605469 52.832031 174.777344 51.683594 C 178.207031 49.921875 182.242188 48.292969 190.125 48.855469 C 193.761719 49.113281 198.0625 49.851562 203.199219 51.085938 C 205.511719 51.597656 207 53.964844 206.394531 56.359375 C 205.796875 58.667969 203.515625 60.160156 201.117188 59.554688 C 196.496094 58.441406 192.621094 57.820312 189.503906 57.597656 C 183.789062 57.195312 181.277344 58.234375 178.746094 59.535156 C 178.027344 59.832031 177.238281 59.949219 176.457031 59.894531 Z M 176.457031 59.894531 " fill-opacity="1" fill-rule="nonzero"/></g></g></g></svg>