<svg xmlns="http://www.w3.org/2000/svg" xmlns:xlink="http://www.w3.org/1999/xlink" width="1000" zoomAndPan="magnify" viewBox="0 0 750 749.999995" height="1000" preserveAspectRatio="xMidYMid meet" version="1.0"><path fill="#e5ffff" d="M 675.625 360.660156 C 605.605469 368.140625 524.117188 372.996094 440.265625 378.386719 C 440.554688 382.476562 440.839844 386.5625 441.121094 390.652344 C 470.519531 419.421875 500.355469 447.753906 531.253906 475.035156 C 552.792969 498.328125 583.199219 516.398438 598.648438 544.042969 C 598.917969 545.078125 599.132812 546.125 599.28125 547.183594 C 599.433594 548.242188 599.527344 549.304688 599.558594 550.375 C 599.589844 551.445312 599.558594 552.511719 599.46875 553.578125 C 599.378906 554.644531 599.230469 555.703125 599.019531 556.75 C 598.8125 557.800781 598.542969 558.832031 598.214844 559.851562 C 597.886719 560.871094 597.503906 561.867188 597.0625 562.839844 C 596.625 563.816406 596.128906 564.761719 595.582031 565.683594 C 595.035156 566.601562 594.4375 567.484375 593.789062 568.335938 C 593.140625 569.1875 592.445312 570 591.703125 570.773438 C 590.964844 571.542969 590.183594 572.273438 589.359375 572.957031 C 588.539062 573.636719 587.679688 574.273438 586.785156 574.859375 C 585.886719 575.445312 584.964844 575.980469 584.007812 576.460938 C 583.050781 576.941406 582.074219 577.367188 581.070312 577.734375 C 580.066406 578.105469 579.042969 578.417969 578.003906 578.671875 C 576.964844 578.925781 575.914062 579.121094 574.855469 579.253906 C 573.792969 579.390625 572.726562 579.464844 571.65625 579.476562 C 547.523438 576.417969 537.996094 556.28125 508.53125 534.921875 C 487.621094 517.75 467.410156 499.878906 447.472656 481.722656 C 452.484375 553.628906 457.351562 625.546875 461.238281 697.519531 C 461.320312 698.941406 461.285156 700.359375 461.121094 701.773438 C 460.957031 703.1875 460.675781 704.578125 460.269531 705.945312 C 459.867188 707.308594 459.347656 708.628906 458.710938 709.902344 C 458.078125 711.175781 457.335938 712.386719 456.492188 713.53125 C 455.644531 714.675781 454.707031 715.742188 453.675781 716.722656 C 452.644531 717.703125 451.535156 718.589844 450.351562 719.378906 C 449.164062 720.167969 447.921875 720.847656 446.617188 721.417969 C 445.3125 721.988281 443.96875 722.445312 442.585938 722.78125 C 441.203125 723.117188 439.800781 723.335938 438.382812 723.425781 C 436.960938 723.519531 435.542969 723.488281 434.128906 723.335938 C 432.710938 723.179688 431.320312 722.90625 429.953125 722.507812 C 428.585938 722.113281 427.261719 721.601562 425.984375 720.972656 C 424.707031 720.34375 423.492188 719.613281 422.34375 718.773438 C 421.191406 717.933594 420.125 717.003906 419.136719 715.976562 C 418.148438 714.953125 417.257812 713.847656 416.460938 712.667969 C 415.667969 711.488281 414.980469 710.246094 414.398438 708.945312 C 403.363281 637.335938 394.066406 540.511719 386.492188 436.75 C 336.546875 493.996094 285.523438 550.296875 232.03125 604.417969 C 231.269531 605.300781 230.445312 606.121094 229.5625 606.878906 C 228.679688 607.636719 227.742188 608.324219 226.753906 608.9375 C 225.765625 609.554688 224.738281 610.09375 223.667969 610.558594 C 222.601562 611.019531 221.503906 611.398438 220.375 611.695312 C 219.25 611.988281 218.105469 612.199219 216.949219 612.324219 C 215.792969 612.449219 214.628906 612.484375 213.46875 612.433594 C 212.304688 612.382812 211.152344 612.246094 210.007812 612.019531 C 208.867188 611.796875 207.746094 611.488281 206.648438 611.09375 C 205.554688 610.699219 204.492188 610.226562 203.46875 609.671875 C 202.445312 609.121094 201.464844 608.492188 200.535156 607.792969 C 199.605469 607.089844 198.734375 606.324219 197.917969 605.492188 C 197.105469 604.660156 196.355469 603.773438 195.675781 602.828125 C 194.996094 601.882812 194.390625 600.890625 193.859375 599.855469 C 193.328125 598.820312 192.875 597.75 192.503906 596.644531 C 192.136719 595.542969 191.851562 594.414062 191.648438 593.269531 C 191.449219 592.121094 191.335938 590.964844 191.308594 589.800781 C 194.667969 571.738281 194.609375 579.308594 200.640625 570.421875 C 250.601562 509.738281 303.164062 451.289062 354.96875 392.1875 C 352.5625 389.726562 350.175781 387.246094 347.777344 384.78125 C 262.8125 390.007812 178.355469 399.664062 94.402344 413.742188 C 92.835938 414.136719 91.246094 414.398438 89.636719 414.527344 C 88.023438 414.652344 86.414062 414.640625 84.804688 414.496094 C 83.195312 414.347656 81.609375 414.066406 80.046875 413.648438 C 78.484375 413.230469 76.972656 412.683594 75.503906 412.011719 C 74.035156 411.335938 72.632812 410.542969 71.296875 409.632812 C 69.964844 408.71875 68.714844 407.699219 67.554688 406.574219 C 66.394531 405.449219 65.335938 404.238281 64.382812 402.933594 C 63.429688 401.628906 62.589844 400.253906 61.871094 398.804688 C 61.148438 397.359375 60.554688 395.863281 60.089844 394.316406 C 59.625 392.765625 59.292969 391.191406 59.09375 389.585938 C 58.894531 387.984375 58.832031 386.375 58.90625 384.761719 C 58.984375 383.144531 59.195312 381.550781 59.539062 379.96875 C 59.886719 378.390625 60.363281 376.855469 60.972656 375.355469 C 61.578125 373.859375 62.308594 372.421875 63.160156 371.050781 C 64.011719 369.675781 64.972656 368.382812 66.046875 367.175781 C 67.117188 365.964844 68.28125 364.851562 69.542969 363.839844 C 144.132812 348.167969 219.375 336.824219 295.269531 329.804688 C 245.917969 277.179688 197.441406 223.664062 147.804688 171.300781 C 146.777344 170.230469 145.832031 169.09375 144.972656 167.886719 C 144.109375 166.683594 143.339844 165.421875 142.660156 164.105469 C 141.980469 162.785156 141.398438 161.425781 140.914062 160.023438 C 140.433594 158.625 140.054688 157.195312 139.78125 155.738281 C 139.503906 154.28125 139.335938 152.8125 139.273438 151.332031 C 139.210938 149.851562 139.257812 148.371094 139.410156 146.898438 C 139.5625 145.421875 139.820312 143.96875 140.183594 142.53125 C 140.550781 141.09375 141.015625 139.691406 141.582031 138.320312 C 142.148438 136.949219 142.8125 135.628906 143.570312 134.355469 C 144.332031 133.082031 145.175781 131.871094 146.113281 130.71875 C 147.046875 129.570312 148.058594 128.492188 149.152344 127.488281 C 150.242188 126.484375 151.398438 125.566406 152.625 124.730469 C 153.847656 123.894531 155.125 123.152344 156.457031 122.503906 C 157.789062 121.851562 159.164062 121.300781 160.574219 120.851562 C 161.988281 120.398438 163.425781 120.054688 164.886719 119.808594 C 166.347656 119.566406 167.820312 119.433594 169.304688 119.402344 C 198.445312 122.777344 217.085938 160.964844 239.210938 178.921875 C 283.652344 227.5 328.296875 275.867188 373.996094 323.1875 C 375.652344 323.070312 377.304688 322.898438 378.960938 322.78125 C 373.496094 230.414062 369.351562 137.667969 366.605469 56.328125 C 366.632812 54.957031 366.757812 53.59375 366.984375 52.242188 C 367.207031 50.886719 367.527344 49.558594 367.945312 48.25 C 368.363281 46.941406 368.875 45.671875 369.476562 44.441406 C 370.078125 43.207031 370.765625 42.023438 371.539062 40.890625 C 372.3125 39.757812 373.164062 38.6875 374.09375 37.675781 C 375.023438 36.664062 376.019531 35.726562 377.085938 34.863281 C 378.148438 34 379.269531 33.214844 380.449219 32.511719 C 381.628906 31.808594 382.851562 31.195312 384.117188 30.671875 C 385.386719 30.144531 386.683594 29.714844 388.015625 29.378906 C 389.347656 29.039062 390.691406 28.800781 392.058594 28.660156 C 393.421875 28.519531 394.789062 28.476562 396.160156 28.535156 C 397.53125 28.589844 398.890625 28.746094 400.242188 29 C 401.589844 29.257812 402.910156 29.605469 404.210938 30.050781 C 405.507812 30.5 406.765625 31.035156 407.984375 31.664062 C 409.203125 32.292969 410.371094 33.007812 411.488281 33.804688 C 412.605469 34.605469 413.65625 35.476562 414.644531 36.429688 C 415.953125 37.738281 417.117188 39.160156 418.144531 40.695312 C 419.167969 42.230469 420.035156 43.855469 420.742188 45.5625 C 421.449219 47.269531 421.984375 49.027344 422.34375 50.839844 C 422.707031 52.652344 422.886719 54.480469 422.886719 56.328125 C 424.046875 107.453125 425.746094 158.570312 429.066406 209.605469 C 430.851562 239.292969 432.851562 268.964844 434.847656 298.636719 C 498.527344 214.933594 567.054688 135.414062 640.433594 60.074219 C 641.339844 59.203125 642.304688 58.398438 643.328125 57.667969 C 644.351562 56.9375 645.421875 56.28125 646.542969 55.703125 C 647.660156 55.128906 648.816406 54.636719 650.003906 54.226562 C 651.195312 53.816406 652.40625 53.496094 653.644531 53.261719 C 654.878906 53.027344 656.128906 52.886719 657.386719 52.832031 C 658.640625 52.78125 659.898438 52.820312 661.148438 52.949219 C 662.398438 53.078125 663.636719 53.296875 664.855469 53.605469 C 666.074219 53.914062 667.265625 54.308594 668.429688 54.792969 C 669.59375 55.273438 670.714844 55.835938 671.796875 56.480469 C 672.875 57.125 673.90625 57.84375 674.882812 58.636719 C 675.859375 59.429688 676.773438 60.289062 677.625 61.214844 C 678.476562 62.144531 679.257812 63.125 679.964844 64.164062 C 680.675781 65.203125 681.304688 66.289062 681.859375 67.421875 C 682.410156 68.550781 682.878906 69.714844 683.261719 70.914062 C 683.644531 72.113281 683.9375 73.332031 684.144531 74.574219 C 684.351562 75.816406 684.464844 77.066406 684.492188 78.324219 C 684.488281 80.019531 684.324219 81.695312 683.992188 83.359375 C 683.660156 85.019531 683.171875 86.632812 682.523438 88.199219 C 681.875 89.765625 681.078125 91.25 680.136719 92.660156 C 679.199219 94.070312 678.128906 95.375 676.929688 96.574219 C 646.578125 126.183594 617.855469 157.300781 590.765625 189.921875 C 556.9375 232.605469 522.714844 274.957031 488.089844 316.976562 C 545.574219 314.550781 603.007812 312.804688 659.945312 311.574219 C 660.714844 311.425781 661.492188 311.316406 662.273438 311.238281 C 663.054688 311.160156 663.835938 311.121094 664.621094 311.113281 C 665.40625 311.105469 666.1875 311.136719 666.972656 311.203125 C 667.753906 311.265625 668.53125 311.367188 669.304688 311.503906 C 670.078125 311.636719 670.84375 311.808594 671.601562 312.011719 C 672.359375 312.21875 673.105469 312.457031 673.839844 312.730469 C 674.578125 313.003906 675.296875 313.308594 676.007812 313.644531 C 676.714844 313.984375 677.40625 314.355469 678.082031 314.753906 C 678.753906 315.15625 679.410156 315.585938 680.046875 316.046875 C 680.683594 316.507812 681.296875 316.996094 681.886719 317.511719 C 682.476562 318.027344 683.042969 318.570312 683.585938 319.136719 C 684.128906 319.703125 684.644531 320.296875 685.132812 320.910156 C 685.621094 321.523438 686.082031 322.160156 686.511719 322.816406 C 686.941406 323.472656 687.34375 324.144531 687.714844 324.835938 C 688.082031 325.53125 688.421875 326.238281 688.726562 326.960938 C 689.03125 327.683594 689.304688 328.417969 689.542969 329.164062 C 689.78125 329.914062 689.988281 330.671875 690.15625 331.4375 C 690.328125 332.203125 690.460938 332.976562 690.5625 333.753906 C 690.664062 334.53125 690.726562 335.3125 690.757812 336.097656 C 690.785156 336.882812 690.777344 337.664062 690.738281 338.449219 C 690.695312 339.234375 690.617188 340.011719 690.503906 340.789062 C 690.394531 341.566406 690.246094 342.335938 690.0625 343.101562 C 689.878906 343.863281 689.664062 344.617188 689.414062 345.359375 C 689.160156 346.105469 688.878906 346.835938 688.558594 347.554688 C 688.242188 348.269531 687.894531 348.972656 687.511719 349.660156 C 687.132812 350.34375 686.722656 351.011719 686.28125 351.660156 C 685.835938 352.308594 685.367188 352.9375 684.871094 353.542969 C 684.371094 354.152344 683.847656 354.734375 683.292969 355.292969 C 682.742188 355.851562 682.167969 356.382812 681.570312 356.890625 C 680.96875 357.394531 680.347656 357.875 679.703125 358.324219 C 679.0625 358.773438 678.398438 359.195312 677.71875 359.585938 C 677.039062 359.972656 676.339844 360.332031 675.625 360.660156 Z M 675.625 360.660156 " fill-opacity="1" fill-rule="nonzero"/></svg>