<svg xmlns="http://www.w3.org/2000/svg" xmlns:xlink="http://www.w3.org/1999/xlink" width="1000" zoomAndPan="magnify" viewBox="0 0 750 749.999995" height="1000" preserveAspectRatio="xMidYMid meet" version="1.0"><defs><filter x="0%" y="0%" width="100%" height="100%" id="1b0cb5340a"><feColorMatrix values="0 0 0 0 1 0 0 0 0 1 0 0 0 0 1 0 0 0 1 0" color-interpolation-filters="sRGB"/></filter><mask id="c928e6669f"><g filter="url(#1b0cb5340a)"><rect x="-75" width="900" fill="#000000" y="-74.999999" height="899.999994" fill-opacity="0.4863"/></g></mask><clipPath id="6f238ab671"><path d="M 46 64 L 641 64 L 641 680 L 46 680 Z M 46 64 " clip-rule="nonzero"/></clipPath><clipPath id="1f3dc515d5"><path d="M -51.960938 242.75 L 511.554688 -25.257812 L 764.742188 507.101562 L 201.230469 775.109375 Z M -51.960938 242.75 " clip-rule="nonzero"/></clipPath><clipPath id="82c6da31a5"><path d="M -51.960938 242.75 L 511.554688 -25.257812 L 764.742188 507.101562 L 201.230469 775.109375 Z M -51.960938 242.75 " clip-rule="nonzero"/></clipPath><clipPath id="0fd7962269"><rect x="0" width="750" y="0" height="750"/></clipPath></defs><g mask="url(#c928e6669f)"><g transform="matrix(1, 0, 0, 1, 0, -0.000000000000042435)"><g clip-path="url(#0fd7962269)"><g clip-path="url(#6f238ab671)"><g clip-path="url(#1f3dc515d5)"><g clip-path="url(#82c6da31a5)"><path fill="#e5ffff" d="M 437.234375 659.320312 C 437.492188 656.984375 429.375 659.570312 415.015625 666.398438 C 400.484375 673.308594 388.75 677.027344 382.210938 676.785156 C 376.609375 676.582031 369.78125 677.472656 367.039062 678.765625 C 364.292969 680.058594 361.4375 679.835938 360.691406 678.269531 C 359.945312 676.707031 356.734375 676.664062 353.550781 678.175781 C 350.371094 679.6875 346.113281 679.355469 344.097656 677.4375 C 342.078125 675.515625 338.921875 674.660156 337.085938 675.53125 C 335.25 676.40625 330.570312 675.296875 326.6875 673.070312 C 322.800781 670.839844 317.226562 668.105469 314.296875 666.992188 C 311.363281 665.878906 308.277344 663.519531 307.4375 661.75 C 306.59375 659.980469 305.113281 659.757812 304.144531 661.257812 C 303.179688 662.753906 299.144531 659.269531 295.179688 653.507812 C 291.21875 647.746094 286.710938 643.636719 285.160156 644.371094 C 281.679688 646.027344 261.5 604.421875 263.949219 600.628906 C 264.910156 599.136719 264.585938 593.492188 263.222656 588.082031 C 261.863281 582.667969 262.140625 575.042969 263.84375 571.128906 C 265.546875 567.21875 266.476562 560.679688 265.910156 556.601562 C 265.34375 552.523438 266.242188 549.335938 267.90625 549.519531 C 269.570312 549.703125 270.191406 546.152344 269.285156 541.632812 C 267.84375 534.460938 269.859375 527.207031 278.703125 507.71875 C 279.875 505.136719 279.640625 500.511719 278.179688 497.441406 C 276.71875 494.371094 276.679688 491.308594 278.09375 490.636719 C 279.507812 489.964844 277.898438 481.304688 274.519531 471.390625 C 271.144531 461.476562 269.535156 452.816406 270.949219 452.144531 C 272.359375 451.472656 272.644531 449.089844 271.578125 446.851562 C 270.515625 444.609375 272.300781 441.011719 275.546875 438.855469 C 278.792969 436.695312 281.542969 430.960938 281.65625 426.105469 C 281.765625 421.253906 282.457031 418.488281 283.1875 419.964844 C 283.917969 421.441406 285.320312 420.382812 286.308594 417.609375 C 287.292969 414.835938 290.40625 411.46875 293.226562 410.128906 C 296.046875 408.789062 297.566406 406.042969 296.609375 404.027344 C 295.652344 402.011719 297.4375 398.894531 300.578125 397.097656 C 303.722656 395.300781 308.007812 389 310.109375 383.09375 C 312.425781 376.574219 317.132812 370.828125 322.082031 368.476562 C 326.570312 366.34375 329.628906 363.316406 328.886719 361.75 C 328.140625 360.183594 332.015625 356.769531 337.5 354.164062 C 342.980469 351.554688 348.074219 350.703125 348.820312 352.269531 C 349.566406 353.835938 355.941406 352.375 362.988281 349.019531 C 370.855469 345.28125 376.414062 344.207031 377.386719 346.246094 C 378.253906 348.074219 379.386719 348.386719 379.898438 346.945312 C 381.277344 343.066406 410.667969 345.09375 422.714844 349.898438 C 428.453125 352.183594 434.566406 353.378906 436.300781 352.554688 C 438.03125 351.730469 439.28125 352.578125 439.078125 354.441406 C 438.871094 356.300781 442.964844 356.839844 448.167969 355.632812 C 453.371094 354.425781 458.234375 354.707031 458.976562 356.261719 C 460.660156 359.804688 467.875 362.390625 481.078125 364.1875 C 486.722656 364.953125 491.925781 366.804688 492.636719 368.304688 C 494.386719 371.980469 505.203125 375.640625 508.988281 373.839844 C 510.667969 373.042969 513.261719 374.953125 514.75 378.082031 C 516.238281 381.214844 518.714844 383.179688 520.25 382.449219 C 521.789062 381.71875 525.371094 383.941406 528.21875 387.386719 C 531.0625 390.835938 534.445312 393.152344 535.738281 392.539062 C 537.027344 391.925781 540.324219 393.820312 543.058594 396.75 C 545.796875 399.679688 550.621094 402.992188 553.78125 404.117188 C 556.945312 405.238281 560.402344 407.988281 561.464844 410.226562 C 562.527344 412.464844 564.679688 413.683594 566.246094 412.9375 C 567.8125 412.195312 570.617188 414.789062 572.480469 418.703125 C 574.34375 422.617188 577.089844 425.238281 578.585938 424.527344 C 580.082031 423.816406 584.277344 427.316406 587.914062 432.308594 C 591.546875 437.300781 595.519531 440.910156 596.734375 440.332031 C 597.953125 439.753906 601.925781 443.363281 605.558594 448.355469 C 609.195312 453.34375 613.390625 456.847656 614.886719 456.136719 C 616.382812 455.425781 621.261719 462.53125 625.730469 471.925781 C 630.242188 481.414062 632.589844 489.609375 631.007812 490.363281 C 629.441406 491.105469 629.398438 494.320312 630.910156 497.5 C 632.421875 500.679688 632 505.027344 629.972656 507.160156 C 627.148438 510.125 627.375 511.15625 630.945312 511.546875 C 633.9375 511.875 632.1875 514.546875 626.058594 519.011719 C 620.804688 522.835938 617.050781 527.101562 617.710938 528.492188 C 618.375 529.882812 616.953125 531.957031 614.554688 533.097656 C 612.15625 534.238281 610.371094 537.445312 610.585938 540.222656 C 610.800781 543 609.300781 546.070312 607.246094 547.046875 C 605.195312 548.019531 603.707031 550.375 603.941406 552.277344 C 604.175781 554.179688 597.378906 559.988281 588.835938 565.183594 C 580.296875 570.382812 573.777344 575.621094 574.351562 576.828125 C 574.925781 578.03125 559.171875 587.863281 539.34375 598.671875 C 519.515625 609.484375 503.824219 619.445312 504.472656 620.808594 C 505.121094 622.175781 498.605469 626.644531 489.992188 630.742188 C 481.375 634.839844 474.9375 639.472656 475.683594 641.039062 C 476.457031 642.667969 468.4375 647.976562 456.933594 653.445312 C 444.253906 659.476562 436.980469 661.648438 437.234375 659.324219 Z M 338.390625 358.328125 C 335.941406 358.484375 333.535156 359.753906 333.039062 361.148438 C 332.542969 362.546875 334.542969 362.417969 337.488281 360.867188 C 340.738281 359.152344 341.09375 358.15625 338.390625 358.328125 Z M 180.28125 566.8125 C 174.402344 566.5 166.097656 564.859375 161.824219 563.167969 C 157.554688 561.476562 152.964844 560.617188 151.628906 561.25 C 150.292969 561.886719 146.871094 559.585938 144.027344 556.136719 C 141.183594 552.691406 137.597656 550.46875 136.0625 551.199219 C 134.527344 551.929688 131.726562 549.285156 129.839844 545.320312 C 127.957031 541.355469 124.140625 538.289062 121.363281 538.507812 C 118.585938 538.722656 115.195312 536.550781 113.828125 533.675781 C 112.460938 530.804688 109.839844 528.289062 108.003906 528.089844 C 106.167969 527.886719 100.550781 521.433594 95.523438 513.746094 C 90.496094 506.058594 84.5 499.546875 82.199219 499.269531 C 79.480469 498.945312 72.445312 487.046875 62.066406 465.226562 L 46.113281 431.683594 L 54.457031 423.53125 C 59.046875 419.046875 61.449219 415.839844 59.800781 416.410156 C 58.148438 416.976562 60.523438 413.710938 65.078125 409.148438 C 73.53125 400.679688 90.175781 395.832031 92.683594 401.109375 C 93.355469 402.523438 96.46875 402.460938 99.601562 400.96875 C 102.734375 399.480469 105.90625 399.542969 106.652344 401.109375 C 107.394531 402.675781 109.386719 403.296875 111.078125 402.492188 C 112.769531 401.691406 122.660156 404.054688 133.058594 407.75 C 143.457031 411.445312 153.125 413.917969 154.535156 413.246094 C 155.949219 412.574219 159.433594 414.84375 162.277344 418.289062 C 165.121094 421.738281 168.429688 424.09375 169.625 423.523438 C 170.820312 422.953125 175.058594 427.222656 179.039062 433.011719 C 183.019531 438.796875 187.519531 442.941406 189.035156 442.21875 C 190.554688 441.5 194.121094 443.726562 196.96875 447.175781 C 199.8125 450.621094 203.28125 452.898438 204.679688 452.234375 C 206.074219 451.570312 208.4375 453.589844 209.925781 456.722656 C 211.414062 459.855469 213.914062 461.808594 215.480469 461.0625 C 217.140625 460.273438 222.816406 469.140625 229.082031 482.316406 C 234.996094 494.75 238.929688 506.324219 237.824219 508.039062 C 236.71875 509.75 237.03125 513.714844 238.519531 516.847656 C 240.011719 519.976562 239.570312 522.359375 237.542969 522.136719 C 235.519531 521.914062 234.828125 523.765625 236.011719 526.257812 C 237.199219 528.75 236.316406 532.679688 234.058594 534.996094 C 231.796875 537.308594 229.710938 540.804688 229.417969 542.765625 C 229.128906 544.722656 220.359375 551.066406 209.929688 556.855469 C 195.886719 564.660156 188.203125 567.238281 180.28125 566.816406 Z M 577.550781 367.726562 C 575.652344 365.921875 570.714844 365.125 566.574219 365.953125 C 562.433594 366.785156 556.78125 365.011719 554.007812 362.015625 C 551.234375 359.019531 547.871094 356.300781 546.535156 355.976562 C 538.664062 354.0625 529.84375 343.75 522.03125 327.324219 C 515.90625 314.445312 512.441406 309.679688 510.921875 312.039062 C 509.3125 314.527344 508.804688 313.460938 509.058594 308.125 C 509.25 304.085938 507.230469 296.203125 504.566406 290.605469 C 501.402344 283.949219 500.894531 277.800781 503.101562 272.839844 C 504.960938 268.667969 504.957031 262.007812 503.101562 258.039062 C 500.144531 251.722656 499.375 236.035156 502.308594 241.914062 C 505.160156 247.625 509.996094 221.257812 507.183594 215.339844 C 505.167969 211.105469 505.667969 207.84375 508.542969 206.476562 C 511.039062 205.289062 515.480469 200.019531 518.40625 194.769531 C 527.132812 179.097656 574.738281 159.136719 579.503906 169.152344 C 580.265625 170.757812 582.605469 171.253906 584.703125 170.253906 C 588.691406 168.359375 600.605469 176.808594 603.996094 183.9375 C 605.078125 186.210938 607.242188 187.464844 608.808594 186.71875 C 610.527344 185.902344 617.300781 197.226562 625.875 215.257812 C 633.695312 231.699219 638.976562 245.683594 637.609375 246.332031 C 636.242188 246.984375 636.769531 253.121094 638.78125 259.976562 C 640.871094 267.101562 640.851562 276.898438 638.738281 282.847656 C 636.703125 288.574219 635.921875 295.121094 637.003906 297.398438 C 638.089844 299.675781 637.695312 302.148438 636.128906 302.894531 C 634.5625 303.640625 634.210938 306.210938 635.351562 308.609375 C 636.492188 311.007812 635.957031 314.511719 634.164062 316.398438 C 632.367188 318.285156 631.429688 322.605469 632.074219 326 C 632.722656 329.394531 630.816406 334.804688 627.847656 338.023438 C 624.652344 341.480469 624.261719 343.195312 626.894531 342.21875 C 639.382812 337.589844 619.867188 352.058594 601.640625 360.945312 C 586.355469 368.394531 580.105469 370.15625 577.550781 367.726562 Z M 50.9375 459.019531 C 49.074219 455.105469 48.960938 453.195312 50.679688 454.777344 C 52.402344 456.359375 53.925781 459.5625 54.066406 461.894531 C 54.207031 464.230469 52.796875 462.933594 50.9375 459.019531 Z M 229.855469 371.453125 C 230.101562 369.234375 226.507812 368.542969 221.414062 369.824219 C 211.3125 372.367188 183.273438 363.964844 180.183594 357.464844 C 179.050781 355.089844 176.925781 353.71875 175.453125 354.417969 C 173.984375 355.117188 169.183594 350.347656 164.785156 343.816406 C 160.386719 337.289062 155.984375 333.191406 155 334.710938 C 154.019531 336.234375 151.316406 333.484375 148.992188 328.601562 C 146.523438 323.40625 143.9375 321.015625 142.761719 322.835938 C 141.582031 324.660156 138.808594 322.085938 136.070312 316.625 C 121.449219 287.457031 98.503906 244.824219 94.097656 238.628906 C 91.292969 234.683594 90.246094 230.863281 91.773438 230.136719 C 93.300781 229.410156 92.6875 224.894531 90.410156 220.105469 C 87.992188 215.023438 87.800781 211.566406 89.953125 211.800781 C 91.976562 212.023438 92.6875 210.207031 91.523438 207.765625 C 90.363281 205.328125 91.335938 202.414062 93.6875 201.296875 C 96.035156 200.179688 96.976562 197.203125 95.78125 194.6875 C 94.132812 191.222656 95.542969 189.71875 101.570312 188.507812 C 107.453125 187.328125 109 185.773438 107.484375 182.582031 C 105.140625 177.65625 116.113281 171.25 125.96875 171.789062 C 129.394531 171.976562 137.367188 170.609375 143.6875 168.757812 C 150.007812 166.902344 155.714844 166.511719 156.367188 167.886719 C 157.851562 171.003906 182.597656 179.957031 185.679688 178.492188 C 186.921875 177.898438 191.132812 182.050781 195.027344 187.714844 C 198.925781 193.382812 203.28125 197.988281 204.707031 197.949219 C 206.132812 197.914062 212.261719 201.707031 218.324219 206.378906 C 227.921875 213.777344 231.847656 220.207031 248.601562 256.011719 C 259.855469 280.0625 267.035156 298.492188 265.886719 300.382812 C 264.804688 302.160156 265.074219 308.085938 266.480469 313.558594 C 269.371094 324.789062 266.488281 339.046875 260.78125 341.765625 C 258.6875 342.761719 258.148438 344.332031 259.582031 345.257812 C 261.015625 346.183594 256.820312 351.210938 250.257812 356.429688 C 243.695312 361.648438 236.324219 368.03125 233.878906 370.617188 C 231.003906 373.652344 229.582031 373.949219 229.855469 371.453125 Z M 377.195312 272.433594 C 376.453125 270.867188 373.589844 270.628906 370.835938 271.90625 C 363.960938 275.09375 347.226562 268.15625 343.648438 260.632812 C 342.035156 257.238281 339.808594 255.863281 338.703125 257.574219 C 337.394531 259.597656 329.625 245.832031 316.523438 218.289062 C 305.433594 194.972656 295.054688 175.425781 293.460938 174.859375 C 291.867188 174.292969 287.722656 166.96875 284.257812 158.582031 C 277.722656 142.777344 277.652344 120.785156 284.125 117.707031 C 286.097656 116.769531 287.640625 111.902344 287.5625 106.894531 C 287.480469 101.886719 288.496094 98.171875 289.816406 98.640625 C 291.140625 99.109375 295.433594 95.132812 299.363281 89.804688 C 307.078125 79.332031 330.882812 67.1875 336.605469 70.800781 C 338.425781 71.953125 346.566406 70.496094 354.691406 67.570312 C 362.820312 64.640625 370.757812 63.585938 372.335938 65.226562 C 373.910156 66.863281 378.585938 69.121094 382.726562 70.238281 C 386.867188 71.359375 390.984375 73.804688 391.875 75.675781 C 392.761719 77.546875 395.308594 78.851562 397.53125 78.578125 C 403.117188 77.890625 439.886719 154.480469 436.492188 159.734375 C 435.199219 161.738281 434.929688 167.308594 435.890625 172.113281 C 436.855469 176.914062 436.601562 181.339844 435.332031 181.945312 C 434.058594 182.550781 434 187.289062 435.203125 192.476562 C 436.40625 197.667969 436.207031 202.472656 434.765625 203.160156 C 433.324219 203.84375 433.089844 206.386719 434.242188 208.8125 C 436.792969 214.175781 429.457031 233.613281 423.882812 236.261719 C 421.667969 237.316406 421.105469 238.980469 422.632812 239.964844 C 424.15625 240.949219 421.328125 244.722656 416.347656 248.347656 C 411.367188 251.976562 407.875 256.164062 408.585938 257.660156 C 409.296875 259.15625 402.828125 263.730469 394.214844 267.828125 C 385.601562 271.925781 377.941406 273.996094 377.199219 272.429688 Z M 313.414062 70.25 C 313.910156 68.851562 316.316406 67.582031 318.765625 67.429688 C 321.46875 67.257812 321.113281 68.25 317.863281 69.964844 C 314.917969 71.519531 312.917969 71.644531 313.414062 70.25 Z M 313.414062 70.25 " fill-opacity="1" fill-rule="nonzero"/></g></g></g></g></g></g></svg>